/vscmnt/brussel_pixiu_data/_data_brussel/112/vsc11236/PredSimResults/SUBJ07opt3D/expIG/worker_01.mot
version=1
nRows=4
nColumns=50
inDegrees=yes
endheader
                time	         pelvis_tilt	         pelvis_list	     pelvis_rotation	           pelvis_tx	           pelvis_ty	           pelvis_tz	       hip_flexion_r	     hip_adduction_r	      hip_rotation_r	        knee_angle_r	       ankle_angle_r	         mtp_angle_r	       hip_flexion_l	     hip_adduction_l	      hip_rotation_l	        knee_angle_l	       ankle_angle_l	         mtp_angle_l	    lumbar_extension	      lumbar_bending	     lumbar_rotation	 ercspn_r/activation	 intobl_r/activation	 extobl_r/activation	    abd_r/activation	    add_r/activation	hamstrings_r/activation	bifemsh_r/activation	glut_max_r/activation	iliopsoas_r/activation	rect_fem_r/activation	  vasti_r/activation	gastroc_r/activation	 soleus_r/activation	tib_ant_r/activation	 ercspn_l/activation	 intobl_l/activation	 extobl_l/activation	    abd_l/activation	    add_l/activation	hamstrings_l/activation	bifemsh_l/activation	glut_max_l/activation	iliopsoas_l/activation	rect_fem_l/activation	  vasti_l/activation	gastroc_l/activation	 soleus_l/activation	tib_ant_l/activation	
          2.32401036	         -0.49102581	          1.34122276	        -10.16508771	          1.39440621	          0.87236626	          0.02560864	        -11.74856761	         -0.76155435	          2.44296590	         -5.39577015	         11.69713051	         16.13216653	         22.82828616	         -1.06503205	         -3.39991363	        -11.89786061	         -0.19872033	          0.22681655	         -5.73525589	          2.90318777	         -1.66836688	          0.03830667	          0.00999999	          0.00999999	          0.06105407	          0.00999999	          0.01000000	          0.11167501	          0.00999999	          0.15288346	          0.00999999	          0.00999999	          0.10804158	          0.22356784	          0.02423631	          0.11981170	          0.11650410	          0.01160725	          0.00999999	          0.08708873	          0.02348321	          0.10418294	          0.03704654	          0.01583125	          0.01171125	          0.00999999	          0.01445753	          0.01086198	          0.26918590	
          2.33950376	         -0.56205741	          1.17974790	         -9.74261333	          1.40540610	          0.87105218	          0.02430916	        -12.00412631	         -0.62512780	          1.64396341	         -6.31340379	         11.64348777	         17.31441228	         22.35502396	         -0.86301624	         -3.17550219	        -12.32441542	         -0.30810083	          0.22366652	         -5.64127005	          2.56356724	         -1.50205180	          0.05787630	          0.00999999	          0.00999999	          0.04949720	          0.00999999	          0.01000000	          0.08875611	          0.00999999	          0.12150740	          0.00999999	          0.00999999	          0.10558219	          0.22715219	          0.01926232	          0.11489809	          0.10635455	          0.00999999	          0.00999999	          0.09278724	          0.03368345	          0.08590172	          0.04973550	          0.01258222	          0.00999999	          0.00999999	          0.01149043	          0.00999999	          0.28643887	
          2.35499716	         -0.62913523	          1.02198758	         -9.26753823	          1.41665126	          0.86997373	          0.02286143	        -12.19169161	         -0.49083572	          0.81244308	         -7.38390007	         11.46954069	         18.55964431	         21.89749491	         -0.68223295	         -2.92186281	        -12.71583747	         -0.52594835	          0.22025984	         -5.52890591	          2.19773355	         -1.31604857	          0.07255873	          0.00999999	          0.00999999	          0.03933896	          0.00999999	          0.01000002	          0.07054082	          0.00999999	          0.09657061	          0.01583125	          0.01361517	          0.08758297	          0.22668989	          0.01530914	          0.11507288	          0.10027597	          0.00999999	          0.02809463	          0.10273844	          0.03923794	          0.06827223	          0.04805533	          0.00999999	          0.00999999	          0.01279570	          0.00999999	          0.00999999	          0.30482862	
          2.37049056	         -0.69144122	          0.86445213	         -8.73976363	          1.42807831	          0.86926027	          0.02125476	        -12.29206027	         -0.35781089	         -0.05236355	         -8.62463974	         11.12512638	         19.85633404	         21.50464347	         -0.51807007	         -2.69683659	        -13.21310350	         -0.67941262	          0.21670062	         -5.40120488	          1.81621018	         -1.11233036	          0.08663174	          0.00999999	          0.00999999	          0.03126548	          0.00999999	          0.01000001	          0.05606383	          0.00999999	          0.07675157	          0.01258223	          0.02064840	          0.06960844	          0.22120070	          0.01216727	          0.11454960	          0.07969647	          0.00999999	          0.04633070	          0.10519940	          0.04526600	          0.05426082	          0.04770172	          0.00999999	          0.00999999	          0.03015287	          0.00999999	          0.00999999	          0.31454808	
